<?xml version="1.0" encoding="UTF-8"?>
<svg xmlns="http://www.w3.org/2000/svg" viewBox="0 0 24 24">
  <defs>
    <style>
      .cls-1 {
        fill: #f9cb3e;
      }

      .cls-2 {
        fill: #b0b4db;
      }

      .cls-3 {
        fill: #45ad92;
      }

      .cls-4 {
        fill: #3855a2;
      }

      .cls-5 {
        fill: #3855a1;
      }

      .cls-6 {
        fill: #fff;
        opacity: .2;
      }
    </style>
  </defs>
  <rect id="Rectangle" class="cls-6" x="3" y="3" width="18" height="18" rx="2" ry="2"/>
  <g id="Laag_5" data-name="Laag 5">
    <path class="cls-5" d="M5.87,16.87v.97c0,.14-.14,.26-.31,.26s-.31-.12-.31-.26v-.97s-.53,0-.53,0v.96s0,.01,0,.01c0,.14-.14,.26-.31,.26s-.31-.12-.31-.26v-.97s-.53,0-.53,0v.97c0,.4,.37,.72,.83,.72,.23,0,.43-.07,.59-.2,.15,.12,.35,.19,.57,.2,.46,0,.84-.32,.85-.71v-.98s-.53,0-.53,0h0Z"/>
    <path class="cls-5" d="M11.45,16.9h.61s0,.89,0,.89c0,0,0,.77-.6,.77v-1.66h0Z"/>
    <path class="cls-3" d="M12.09,16.38c0,.16-.15,.3-.34,.3-.19,0-.35-.12-.35-.29,0-.16,.15-.3,.34-.3,.19,0,.35,.12,.35,.29"/>
    <path class="cls-5" d="M8.09,18.56s0-.03,0-.05c0-.02,0-.03,0-.05-.06,.04-.13,.08-.21,.1-.08,.02-.16,.04-.25,.04-.13,0-.25-.02-.36-.06s-.21-.1-.3-.18c-.09-.08-.15-.17-.2-.28-.05-.11-.07-.23-.07-.36,0-.13,.03-.25,.07-.36,.05-.11,.12-.2,.2-.27s.19-.13,.3-.18c.11-.04,.23-.06,.36-.06,.09,0,.18,.01,.26,.04,.08,.02,.15,.06,.21,.1,0-.02,0-.03,0-.05,0-.01,0-.03,0-.04,.1,0,.21,0,.31,0,.11,0,.21,0,.31,0,0,.27,0,.55,0,.83,0,.28,0,.56,0,.83-.1,0-.2,0-.31,0-.11,0-.21,0-.31,0m-.38-.42c.12,0,.22-.04,.29-.11,.07-.07,.11-.17,.11-.29,0-.12-.04-.22-.11-.29-.07-.07-.17-.11-.29-.11-.12,0-.22,.04-.29,.11-.07,.07-.11,.17-.11,.29s.04,.22,.11,.3,.17,.11,.29,.11"/>
    <path class="cls-5" d="M13.06,18.56c-.1,0-.2,0-.31,0-.1,0-.21,0-.31,0,0-.38,0-.77,0-1.16s0-.78,0-1.16c.1,0,.2,0,.31,0,.1,0,.21,0,.31,0,0,.13,0,.26,0,.39,0,.13,0,.26,0,.39,.06-.04,.13-.08,.21-.1,.08-.02,.16-.04,.25-.04,.12,0,.24,.02,.35,.06,.11,.04,.21,.1,.3,.18s.15,.17,.2,.27c.05,.11,.07,.22,.07,.35,0,.13-.02,.24-.07,.35-.05,.11-.12,.2-.2,.28-.09,.08-.18,.14-.3,.18-.11,.04-.23,.06-.36,.06-.09,0-.17-.01-.25-.04-.08-.02-.15-.06-.21-.1,0,.01,0,.03,0,.05v.05m.38-.42c.12,0,.22-.04,.29-.11s.11-.17,.11-.29c0-.12-.03-.22-.11-.29-.07-.07-.17-.11-.29-.11-.12,0-.21,.04-.29,.11-.07,.07-.11,.17-.11,.29s.04,.22,.11,.29c.07,.07,.17,.11,.29,.11"/>
    <path class="cls-5" d="M16.17,16.93v.72c0,.23-.21,.42-.47,.42s-.47-.18-.47-.41v-.73h-.52v.82c0,.47,.46,.85,1,.84,.55,0,.99-.39,.99-.86v-.8h-.52Z"/>
    <path class="cls-5" d="M17.06,18.59c0-.27,0-.55,0-.83,0-.28,0-.56,0-.83,.1,0,.21,0,.31,0,.11,0,.21,0,.31,0v.09c.08-.05,.17-.08,.26-.11,.1-.02,.2-.03,.32-.02,0,.09,0,.17,0,.26,0,.09,0,.17,0,.26-.2-.02-.34,0-.44,.04-.1,.05-.14,.14-.14,.25,0,.14,0,.29,0,.44,0,.15,0,.29,0,.44-.1,0-.2,0-.31,0s-.21,0-.31,0"/>
    <path class="cls-5" d="M10.41,18.56s0-.03,0-.05c0-.02,0-.03,0-.05-.06,.04-.13,.08-.21,.1-.08,.02-.16,.04-.25,.04-.13,0-.25-.02-.36-.06-.11-.04-.21-.1-.3-.18-.09-.08-.15-.17-.2-.28-.05-.11-.07-.23-.07-.36,0-.13,.03-.25,.07-.36s.12-.2,.2-.27c.09-.08,.19-.13,.3-.18,.11-.04,.23-.06,.36-.06,.09,0,.18,.01,.26,.04,.08,.02,.15,.06,.21,.1,0-.02,0-.03,0-.05s0-.03,0-.04c.1,0,.21,0,.31,0,.11,0,.21,0,.31,0,0,.27,0,.55,0,.83,0,.28,0,.56,0,.83-.1,0-.2,0-.31,0-.11,0-.21,0-.31,0m-.38-.42c.12,0,.22-.04,.29-.11,.07-.07,.11-.17,.11-.29,0-.12-.04-.22-.11-.29-.07-.07-.17-.11-.29-.11-.12,0-.22,.04-.29,.11-.07,.07-.11,.17-.11,.29s.04,.22,.11,.3,.17,.11,.29,.11"/>
    <path class="cls-3" d="M12.24,8.7h3.1c1.71,0,3.1-1.16,3.1-2.6s-1.39-2.6-3.1-2.6-3.1,1.16-3.1,2.6v2.6h0Z"/>
    <path class="cls-2" d="M8.58,6.12h0c0,1.43,1.35,2.58,3.02,2.58,0-1.43-1.35-2.58-3.02-2.58"/>
    <path class="cls-1" d="M5.55,3.54h0c0,1.43,1.35,2.58,3.02,2.58,0-1.43-1.35-2.58-3.02-2.58"/>
    <path class="cls-5" d="M11.6,3.54h0c-1.67,0-3.02,1.16-3.02,2.58,1.67,0,3.02-1.16,3.02-2.58"/>
    <path class="cls-3" d="M8.58,6.12h0c-1.67,0-3.02,1.16-3.02,2.58,1.67,0,3.02-1.16,3.02-2.58"/>
    <path class="cls-5" d="M11.6,11.74v-2.49h-.06c-3.28,0-5.93,2.27-5.93,5.07h2.91c0-1.42,1.35-2.58,3.02-2.58"/>
    <path class="cls-3" d="M8.88,14.32h2.72v-2.33h0c-1.5,0-2.72,1.04-2.72,2.33"/>
    <path class="cls-1" d="M16.85,9.25c0,.75-.72,1.36-1.6,1.36s-1.6-.61-1.6-1.36h-1.41c0,1.42,1.35,2.57,3.01,2.57s3.01-1.15,3.01-2.57h-1.41Z"/>
    <path class="cls-2" d="M13.65,14.32c.04-.72,.74-1.3,1.6-1.3s1.55,.57,1.6,1.3h1.41c-.04-1.39-1.37-2.5-3.01-2.5s-2.96,1.11-3.01,2.5h1.41Z"/>
    <path class="cls-4" d="M19.75,18.04c-.07,.06-.17,.1-.29,.1-.12,0-.22-.03-.3-.09-.07-.06-.11-.15-.11-.25,0-.11,.04-.19,.11-.25,.07-.06,.17-.1,.3-.1s.21,.03,.29,.1,.11,.15,.11,.25-.04,.18-.11,.25m.75-1.08c-.11,0-.19,0-.31,0-.12,0-.24,0-.35,0v.09c-.07-.04-.15-.07-.23-.1-.09-.02-.18-.04-.28-.04-.13,0-.25,.02-.36,.06s-.22,.1-.31,.18c-.09,.08-.16,.17-.21,.28-.05,.11-.08,.23-.08,.36,0,.17,.04,.32,.12,.44s.19,.22,.33,.3c.14,.07,.3,.11,.48,.11,.11,0,.21-.01,.3-.04,.06-.02,.11-.04,.16-.06,.05-.03,.1-.05,.14-.09v.61c-.02,.51-.51,.91-1.11,.91-.56,0-1.03-.36-1.1-.82,0-.04-.01-.28-.01-.32h-.6s0,.28,0,.32c.07,.75,.81,1.34,1.71,1.34,.94,0,1.71-.65,1.72-1.45v-2.08"/>
    <path class="cls-5" d="M6.12,16.53v-.04s-.06,.04-.1,.05-.07,.02-.11,.02c-.06,0-.11,0-.16-.03-.05-.02-.1-.05-.13-.08-.04-.04-.07-.08-.09-.12-.02-.05-.03-.1-.03-.16s.01-.11,.03-.16c.02-.05,.05-.09,.09-.12,.04-.03,.08-.06,.13-.08s.1-.03,.16-.03c.04,0,.08,0,.11,.02,.04,.01,.07,.03,.1,.05v-.35h.28v1.05h-.28Zm-.17-.19c.05,0,.1-.02,.13-.05,.03-.03,.05-.08,.05-.13s-.02-.1-.05-.13c-.03-.03-.08-.05-.13-.05s-.1,.02-.13,.05c-.03,.03-.05,.08-.05,.13s.02,.1,.05,.13c.03,.03,.08,.05,.13,.05"/>
    <path class="cls-5" d="M7.35,16.49c-.08,.03-.15,.05-.23,.05s-.15,0-.22-.01c-.07-.01-.13-.04-.18-.07-.05-.03-.09-.08-.12-.13-.03-.05-.04-.11-.04-.18,0-.06,.01-.11,.03-.16,.02-.05,.05-.09,.09-.13s.09-.06,.14-.08c.06-.02,.12-.03,.18-.03,.06,0,.11,0,.16,.02s.09,.04,.12,.07c.03,.03,.06,.06,.08,.1s.03,.08,.04,.13,0,.1-.01,.15h-.56s.06,.06,.11,.08,.11,.02,.18,.01,.14-.02,.22-.05v.2h0Zm-.35-.52s-.06,0-.09,.02c-.03,.02-.05,.04-.06,.07h.31s-.03-.06-.06-.07c-.03-.01-.06-.02-.09-.02"/>
    <path class="cls-3" d="M3.56,20.22s-.02,0-.03,0c-.01,0-.02,0-.03,0v-.07s.01,0,.03,0c.01,0,.02,0,.03,0,.03,0,.05,0,.07-.01,.02,0,.03-.02,.04-.03,0-.01,.01-.03,.02-.04,0-.02,0-.03,0-.04v-.65h.11v.65s0,.05,0,.07c0,.02-.02,.04-.03,.06-.02,.02-.04,.03-.07,.04-.03,.01-.07,.02-.13,.02h0Zm.19-.99s-.04,0-.05-.01-.02-.02-.02-.04,0-.03,.02-.04c.02,0,.03-.01,.05-.01s.04,0,.05,.01c.01,0,.02,.02,.02,.04s0,.03-.02,.04c-.01,0-.03,.01-.05,.01h0Z"/>
    <path class="cls-3" d="M4.1,19.71v-.09h.54l-.02,.03h0s0-.08-.03-.11-.04-.05-.08-.07-.07-.03-.12-.03-.09,0-.13,.03-.07,.04-.09,.08-.03,.07-.03,.12,.01,.09,.03,.12c.02,.03,.05,.06,.09,.08,.04,.02,.08,.03,.13,.03,.04,0,.07,0,.1,0s.05-.02,.07-.03c.02-.01,.03-.02,.04-.04,0-.01,.01-.03,.02-.04h.11s-.01,.05-.03,.07c-.02,.02-.04,.05-.07,.06-.03,.02-.06,.03-.1,.05s-.09,.02-.14,.02c-.07,0-.13-.01-.19-.04-.05-.03-.1-.06-.13-.11-.03-.05-.05-.1-.05-.16s.02-.11,.05-.16,.07-.08,.13-.11c.05-.03,.12-.04,.19-.04s.13,.01,.18,.04,.09,.06,.12,.11,.04,.1,.04,.16c0,0,0,.01,0,.02,0,0,0,.02,0,.02h-.64Z"/>
    <path class="cls-3" d="M5.23,19.98c-.05,0-.09,0-.13-.02-.03-.01-.06-.03-.08-.06-.02-.02-.03-.05-.04-.08,0-.03-.01-.05-.01-.08v-.37h.11v.35s0,.06,.01,.08,.03,.05,.05,.06c.02,.02,.06,.02,.1,.02,.04,0,.08-.01,.11-.03s.05-.05,.07-.08c.02-.03,.03-.06,.03-.09l.07,.02s0,.07-.02,.1-.03,.06-.06,.09c-.03,.03-.06,.05-.09,.06-.04,.02-.08,.02-.12,.02h0Zm.23-.01v-.6h.11v.6h-.11Z"/>
    <path class="cls-3" d="M6.27,19.93s.07,0,.1,.02c.03,0,.05,.02,.07,.04,.02,.02,.02,.04,.02,.07,0,.03-.01,.06-.04,.08s-.06,.04-.12,.06c-.05,.01-.12,.02-.2,.02-.11,0-.2-.01-.25-.04s-.08-.07-.08-.11c0-.02,0-.03,0-.04,0-.01,0-.02,.01-.03h.11s0,.02-.01,.03c0,0,0,.02,0,.03,0,.03,.02,.05,.06,.06,.04,.01,.1,.02,.17,.02,.05,0,.1,0,.14,0s.06-.02,.08-.03,.03-.03,.03-.04c0-.02-.01-.04-.04-.05-.02,0-.05,0-.09-.01l-.27-.02s-.08-.01-.11-.04c-.03-.02-.04-.05-.04-.07,0-.02,0-.04,.02-.05,.01-.02,.02-.03,.04-.04,.01-.01,.03-.02,.04-.02l.09,.03s-.02,0-.04,.02c-.02,.01-.02,.02-.02,.04,0,.01,0,.03,.02,.03,.01,0,.04,.01,.08,.02l.25,.02h0Zm.1-.56h.11l-.04,.24s-.02,.08-.05,.12c-.03,.04-.06,.06-.1,.08s-.1,.03-.16,.03-.12-.01-.17-.03c-.05-.02-.08-.05-.11-.08-.03-.04-.04-.08-.04-.12s.01-.09,.04-.12c.03-.04,.06-.07,.11-.09s.1-.03,.16-.03c.05,0,.1,0,.14,.02s.07,.04,.1,.06c.02,.02,.04,.05,.04,.07h-.04s.02-.15,.02-.15h0Zm-.25,.38s.08,0,.11-.02c.03-.01,.05-.03,.07-.05,.02-.02,.02-.05,.02-.08s0-.06-.02-.08-.04-.04-.07-.05c-.03-.01-.07-.02-.11-.02s-.08,0-.11,.02-.06,.03-.07,.05c-.02,.02-.03,.05-.03,.08s0,.06,.02,.08,.04,.04,.07,.05c.03,.01,.07,.02,.11,.02h0Z"/>
    <path class="cls-3" d="M6.95,19.98c-.06,0-.11-.01-.16-.04-.05-.02-.09-.06-.11-.11-.03-.05-.04-.1-.04-.17s.01-.12,.04-.17c.03-.05,.07-.08,.12-.1,.05-.02,.1-.04,.16-.04s.1,.01,.15,.03,.09,.05,.11,.09c.03,.04,.04,.08,.04,.14h0s-.08,0-.08,0h0s0-.07-.03-.1c-.02-.03-.05-.05-.08-.06-.03-.02-.07-.02-.1-.02-.06,0-.11,.02-.15,.05s-.06,.09-.06,.17,.02,.13,.06,.17,.09,.05,.15,.05c.04,0,.07,0,.11-.02,.03-.02,.06-.04,.08-.07,.02-.03,.03-.06,.03-.09h.08c0,.05-.01,.1-.04,.14s-.06,.07-.11,.1c-.05,.02-.1,.04-.16,.04h0Zm.23-.01v-.88h.11v.88h-.11Z"/>
    <path class="cls-3" d="M7.56,19.97v-.88h.11v.88h-.11Zm.5,0v-.34c0-.06-.01-.1-.04-.13s-.07-.04-.14-.04c-.04,0-.08,0-.11,.02s-.06,.03-.07,.06c-.02,.02-.03,.05-.03,.08l-.07-.02s.01-.08,.04-.12,.06-.06,.11-.08,.1-.03,.15-.03c.08,0,.15,.02,.2,.06,.05,.04,.07,.1,.07,.18v.36h-.11Z"/>
    <path class="cls-3" d="M8.69,19.98c-.05,0-.09,0-.13-.02s-.06-.03-.08-.06c-.02-.02-.03-.05-.04-.08s-.01-.05-.01-.08v-.37h.11v.35s0,.06,.01,.08,.03,.05,.05,.06c.02,.02,.06,.02,.1,.02,.04,0,.08-.01,.11-.03s.05-.05,.07-.08c.02-.03,.03-.06,.03-.09l.07,.02s0,.07-.02,.1-.03,.06-.06,.09c-.03,.03-.06,.05-.09,.06s-.08,.02-.12,.02h0Zm.23-.01v-.6h.11v.6h-.11Z"/>
    <path class="cls-3" d="M9.4,19.09v.88h-.11v-.88h.11Z"/>
    <path class="cls-3" d="M9.67,20.21v-.84h.11v.84h-.11Zm.34-.23c-.05,0-.1-.01-.15-.03-.05-.02-.09-.05-.11-.09-.03-.04-.04-.09-.04-.14h0s.08,0,.08,0h0s0,.07,.03,.09,.05,.05,.08,.06c.03,.02,.07,.02,.1,.02,.06,0,.11-.02,.15-.05s.06-.09,.06-.17-.02-.13-.06-.17c-.04-.04-.09-.05-.15-.05-.04,0-.07,0-.1,.02s-.06,.04-.08,.06-.03,.06-.03,.09h-.08c0-.05,.01-.1,.04-.14,.03-.04,.07-.07,.11-.09,.05-.02,.1-.03,.15-.03s.11,.01,.16,.04c.05,.02,.09,.06,.12,.1s.04,.1,.04,.17-.01,.12-.04,.17c-.03,.05-.07,.08-.11,.11-.05,.02-.1,.04-.16,.04h0Z"/>
  </g>
</svg>