<?xml version="1.0" standalone="no"?>
<!DOCTYPE svg PUBLIC "-//W3C//DTD SVG 1.1//EN" "http://www.w3.org/Graphics/SVG/1.1/DTD/svg11.dtd">
<svg xmlns="http://www.w3.org/2000/svg" id="Laag_1" viewBox="0 0 120 120" width="120" height="120"><defs><style>.cls-1{fill:#f9cb3e;}.cls-2{fill:#b0b4db;}.cls-3{fill:#45ad92;}.cls-4{fill:#3855a1;}</style></defs><path class="cls-2" d="m60.56,59.71h0c0,30.07,24.37,54.44,54.44,54.44,0-30.07-24.38-54.44-54.44-54.44"/><path class="cls-1" d="m6.11,5.26h0c0,30.07,24.37,54.44,54.44,54.44C60.56,29.64,36.18,5.26,6.11,5.26"/><path class="cls-4" d="m115,5.26h0c-30.07,0-54.44,24.37-54.44,54.44,30.07,0,54.44-24.37,54.44-54.44"/><path class="cls-3" d="m60.56,59.71h0c-30.07,0-54.44,24.37-54.44,54.44,30.07,0,54.44-24.37,54.44-54.44"/></svg>