<?xml version="1.0" standalone="no"?>
<!DOCTYPE svg PUBLIC "-//W3C//DTD SVG 1.1//EN" "http://www.w3.org/Graphics/SVG/1.1/DTD/svg11.dtd">
<svg xmlns="http://www.w3.org/2000/svg" id="Laag_1" viewBox="0 0 3014.53 1254.04" width="3014.530029296875" height="1254.0400390625"><defs><style>.cls-1{fill:#f9cb3e;}.cls-2{fill:#b0b4db;}.cls-3{fill:#45ad92;}.cls-4{fill:#3855a2;}.cls-5{fill:#3855a1;}</style></defs><path class="cls-5" d="m1086.8,471.14l-.12,126.77c-.13,18.93-15.64,34.22-34.57,34.09-18.93-.13-34.22-15.65-34.09-34.57l.12-126.29h-59.43l-.12,125.3-.86,1.81c-.13,18.93-15.64,34.22-34.57,34.09-18.93-.13-34.22-15.64-34.09-34.57l.12-126.63h-59.43s-.13,126.82-.13,126.82c-.36,51.7,41.41,94.06,93.11,94.42,25.28.18,48.32-9.72,65.31-25.92,16.64,15.7,39.01,25.41,63.64,25.58,51.69.36,94.05-41.41,94.41-93.11l.12-127.8h-59.43Z"/><path class="cls-5" d="m1708.93,475.74l67.84.28-.48,116.57s.24,100.31-67.36,100.03v-216.89Z"/><path class="cls-3" d="m1780.02,407.19c.55,21.26-16.24,38.94-37.5,39.48-21.25.55-38.93-16.24-39.48-37.5-.55-21.25,16.24-38.93,37.5-39.48,21.25-.55,38.93,16.24,39.48,37.5"/><path class="cls-5" d="m1334.38,692.22c0-2.23,0-4.4.01-6.49,0-2.09.01-4.12.01-6.07-7,5.85-14.89,10.38-23.69,13.57-8.8,3.19-18.23,4.78-28.28,4.76-14.24-.03-27.64-2.78-40.19-8.25-12.55-5.47-23.64-13.3-33.24-23.52-9.62-10.21-17.13-22.3-22.55-36.28-5.42-13.97-8.11-29.47-8.08-46.5.04-17.31,2.79-32.94,8.26-46.89,5.47-13.95,13.04-25.87,22.69-35.76,9.65-9.89,20.76-17.55,33.34-22.97,12.57-5.42,25.84-8.11,39.8-8.09,10.05.02,19.54,1.65,28.47,4.87,8.93,3.23,16.88,7.64,23.85,13.24,0-2.23,0-4.33.01-6.28,0-1.95,0-3.91.01-5.86,11.45.02,23.03.04,34.76.07,11.72.03,23.17.05,34.34.07-.07,35.74-.14,71.82-.22,108.26-.07,36.44-.14,72.53-.22,108.27-11.17-.02-22.62-.04-34.34-.07-11.73-.03-23.32-.05-34.76-.07m-42.61-55.37c13.4.02,24.16-4.84,32.28-14.6,8.12-9.75,12.19-22.59,12.22-38.51.03-15.91-3.99-28.69-12.06-38.34-8.08-9.65-18.82-14.48-32.22-14.51-13.68-.03-24.51,4.7-32.48,14.18-7.98,9.48-11.98,22.32-12.01,38.51-.03,16.19,3.92,29.11,11.86,38.76,7.94,9.65,18.74,14.49,32.43,14.52"/><path class="cls-5" d="m1888.19,692.07c-11.09-.02-22.44-.03-34.08-.05-11.63-.02-23.13-.04-34.49-.05.09-50.2.18-100.82.27-151.85.09-51.03.18-101.65.27-151.86,11.36.02,22.85.04,34.49.06,11.63.01,22.99.04,34.07.05-.03,16.64-.06,33.43-.09,50.34-.03,16.93-.06,33.7-.09,50.34,6.94-5.53,14.84-9.89,23.71-13.07,8.87-3.17,18.3-4.76,28.27-4.75,13.85.02,27,2.75,39.46,8.18,12.45,5.43,23.45,13.14,32.99,23.14,9.54,10,17,21.94,22.38,35.82,5.38,13.88,8.05,29.28,8.02,46.19-.03,16.64-2.76,31.89-8.18,45.75-5.43,13.86-12.93,25.85-22.51,35.95-9.57,10.12-20.6,17.93-33.08,23.45-12.48,5.53-25.78,8.29-39.91,8.26-9.98-.01-19.32-1.63-28.04-4.83-8.72-3.2-16.54-7.72-23.45-13.56,0,1.94-.01,3.95-.01,6.03,0,2.08,0,4.23,0,6.45m42.48-54.85c13.58.02,24.32-4.75,32.23-14.31,7.91-9.56,11.88-22.38,11.91-38.47.03-16.08-3.9-28.85-11.78-38.3-7.88-9.43-18.61-14.17-32.18-14.19-13.3-.02-23.97,4.75-32.03,14.3-8.05,9.56-12.09,22.24-12.12,38.05-.03,15.81,3.96,28.58,11.99,38.29,8.01,9.73,18.67,14.59,31.97,14.61"/><path class="cls-5" d="m2235.92,479.45l-1,93.7c.29,30.06-22.97,54.73-51.83,55-28.86.27-52.57-23.96-52.85-54.02l-.58-94.68h-57.29l.06,106.52c.58,61.17,50.81,110.47,111.97,109.89,61.17-.57,110.47-50.8,109.89-111.97l-.07-104.44h-58.3Z"/><path class="cls-5" d="m2334.92,695.88c.03-35.72.06-71.8.09-108.22.03-36.42.06-72.49.08-108.22,11.45,0,23.03.01,34.75.02,11.72,0,23.16.02,34.33.03,0,1.96,0,3.91,0,5.86v5.86c8.65-6.13,18.43-10.73,29.31-13.79,10.88-3.07,22.75-3.89,35.59-2.49,0,11.17-.02,22.47-.03,33.91,0,11.45-.01,22.75-.03,33.91-22.05-3.09-38.38-1.21-48.99,5.61-10.61,6.83-15.92,17.92-15.93,33.27-.01,18.7-.03,37.68-.04,56.93-.01,19.26-.03,38.38-.04,57.36-11.17,0-22.61-.01-34.33-.02-11.72-.01-23.31-.02-34.75-.03"/><path class="cls-5" d="m1593,692.22c0-2.23,0-4.4.01-6.49,0-2.09.01-4.12.01-6.07-7,5.85-14.89,10.38-23.69,13.57-8.8,3.19-18.23,4.78-28.28,4.76-14.24-.03-27.64-2.78-40.19-8.25-12.55-5.47-23.64-13.3-33.25-23.52-9.61-10.21-17.13-22.3-22.55-36.28-5.42-13.97-8.11-29.47-8.08-46.5.04-17.31,2.79-32.94,8.26-46.89,5.47-13.95,13.03-25.87,22.69-35.76,9.65-9.89,20.76-17.55,33.34-22.97,12.57-5.42,25.84-8.11,39.8-8.09,10.05.02,19.54,1.65,28.47,4.87,8.93,3.23,16.88,7.64,23.84,13.24,0-2.23.01-4.33.01-6.28,0-1.95.01-3.91.01-5.86,11.45.02,23.03.04,34.76.07,11.72.03,23.17.05,34.34.07-.07,35.74-.14,71.82-.22,108.26-.07,36.44-.14,72.53-.22,108.27-11.17-.02-22.62-.04-34.34-.07-11.73-.03-23.32-.05-34.76-.07m-42.61-55.37c13.4.02,24.16-4.84,32.28-14.6,8.12-9.75,12.19-22.59,12.22-38.51.03-15.91-3.99-28.69-12.07-38.34-8.08-9.65-18.82-14.48-32.22-14.51-13.68-.03-24.51,4.7-32.48,14.18-7.98,9.48-11.98,22.32-12.01,38.51-.03,16.19,3.92,29.11,11.86,38.76,7.94,9.65,18.74,14.49,32.43,14.52"/><path class="cls-3" d="m524.56,661.16h101.28c55.93,0,101.28-44.48,101.28-99.35s-45.35-99.35-101.28-99.35-101.28,44.48-101.28,99.35v99.35Z"/><path class="cls-2" d="m405.03,562.52h0c0,54.48,44.16,98.63,98.63,98.63,0-54.48-44.16-98.63-98.63-98.63"/><path class="cls-1" d="m306.39,463.88h0c0,54.48,44.16,98.63,98.63,98.63,0-54.48-44.16-98.63-98.63-98.63"/><path class="cls-5" d="m503.66,463.88h0c-54.48,0-98.64,44.16-98.64,98.63,54.48,0,98.64-44.16,98.64-98.63"/><path class="cls-3" d="m405.02,562.52h0c-54.47,0-98.63,44.16-98.63,98.63,54.48,0,98.63-44.16,98.63-98.63"/><path class="cls-5" d="m503.66,777.13v-95.08h-1.82c-106.96,0-193.67,86.68-193.67,193.61h95.12c0-54.42,44.13-98.53,98.57-98.53"/><path class="cls-3" d="m414.75,875.66h88.91v-88.86h-.01c-49.1,0-88.9,39.79-88.9,88.86"/><path class="cls-1" d="m674.94,682.21c-.09,28.72-23.47,52.06-52.21,52.06s-52.12-23.34-52.2-52.06h-45.96c.09,54.15,44,98.01,98.17,98.01s98.08-43.87,98.17-98.01h-45.96Z"/><path class="cls-2" d="m570.66,875.66c1.44-27.52,24.21-49.48,52.07-49.48s50.64,21.96,52.08,49.48h46.03c-1.45-52.95-44.8-95.44-98.1-95.44s-96.65,42.49-98.1,95.44h46.03Z"/><path class="cls-4" d="m2634.46,624.51c-8.01,8.33-18.61,12.49-31.79,12.5-13.82,0-24.81-4.07-32.98-12.24-8.17-8.16-12.25-18.99-12.26-32.5,0-13.82,4.07-24.88,12.24-33.21,8.16-8.32,19.15-12.49,32.97-12.49,13.19,0,23.79,4.23,31.8,12.71,8.01,8.48,12.02,19.47,12.02,32.97,0,13.19-4,23.95-12,32.27m84.1-140.93c-12.57,0-21.26.31-34.45.32-13.19,0-26.22.01-39.1.01,0,2.2,0,4.24,0,6.12v6.12c-7.54-5.33-16.18-9.57-25.91-12.71-9.74-3.14-20.25-4.71-31.56-4.71-14.14,0-27.64,2.76-40.51,8.26-12.87,5.5-24.33,13.43-34.38,23.8-10.05,10.36-17.89,22.61-23.54,36.74-5.65,14.14-8.47,29.68-8.47,46.64,0,21.98,4.41,41.22,13.2,57.7,8.79,16.48,20.97,29.36,36.52,38.61,15.55,9.26,33.21,13.89,53,13.88,11.94,0,23.08-1.73,33.44-5.2,6.29-2.1,12.35-4.86,18.09-8.18,5.69-3.29,11.31-6.83,15.45-12.02,0,0,0,55.75,0,79.44-2.65,65.94-57.05,118.79-123.63,118.81-62.8.02-114.84-46.95-122.82-107.62-.69-5.3-1.58-36.02-1.59-41.5h-67.4c0,5.44.23,36.17.68,41.49,8.26,98.21,90.85,175.59,191.15,175.56,105.01-.03,190.65-84.7,191.81-189.43v-2.41s0-236.14,0-269.74"/><path class="cls-5" d="m1115.15,426.7v-5.64c-3.14,2.63-6.68,4.67-10.63,6.11-3.95,1.44-8.18,2.16-12.7,2.16-6.39,0-12.41-1.25-18.06-3.77-5.64-2.5-10.62-6.05-14.96-10.62-4.32-4.58-7.71-10-10.15-16.27-2.45-6.27-3.67-13.17-3.67-20.69s1.22-14.61,3.67-20.88c2.44-6.27,5.83-11.66,10.15-16.18,4.33-4.51,9.31-7.99,14.96-10.44s11.6-3.67,17.87-3.67c4.52,0,8.78.72,12.79,2.16,4.01,1.44,7.58,3.42,10.72,5.92v-45.52h31.03v137.31h-31.03Zm-19.19-24.83c6.02,0,10.84-2.2,14.48-6.58,3.63-4.39,5.45-10.16,5.45-17.31s-1.82-12.89-5.45-17.21c-3.64-4.33-8.47-6.49-14.48-6.49s-11,2.13-14.58,6.39c-3.57,4.26-5.36,10.03-5.36,17.31s1.79,13.07,5.36,17.4c3.57,4.33,8.43,6.49,14.58,6.49"/><path class="cls-5" d="m1251.52,422.19c-8.65,3.64-17.24,5.89-25.77,6.77-8.53.88-16.59.4-24.17-1.41-7.59-1.82-14.32-4.92-20.22-9.31-5.9-4.39-10.5-9.97-13.82-16.74-3.33-6.77-4.99-14.61-4.99-23.51,0-7.4,1.23-14.2,3.67-20.41,2.45-6.21,5.93-11.66,10.44-16.36,4.51-4.7,9.84-8.34,15.99-10.91,6.14-2.57,12.86-3.86,20.13-3.86,6.52,0,12.41,1.07,17.68,3.2,5.27,2.13,9.85,5.11,13.73,8.93,3.88,3.83,7.02,8.37,9.4,13.64,2.38,5.27,3.89,11.04,4.52,17.31.63,6.27.25,12.91-1.13,19.94h-62.07c2.38,4.77,6.36,8.15,11.94,10.16,5.58,2.01,12.23,2.63,19.94,1.88,7.71-.75,15.95-2.76,24.73-6.02v26.71Zm-39.5-67.9c-3.64,0-7,1.01-10.06,3.01-3.08,2-5.43,5.08-7.05,9.21h34.05c-1.51-4.26-3.73-7.36-6.68-9.31-2.95-1.94-6.36-2.91-10.25-2.91"/><path class="cls-3" d="m829.02,908.44c-1.37,0-2.65-.05-3.82-.15-1.18-.1-2.11-.22-2.79-.37v-9.55c.69.2,1.63.37,2.83.51,1.2.15,2.46.22,3.78.22,3.38,0,6.05-.51,8.01-1.54,1.96-1.03,3.39-2.36,4.3-4,.91-1.64,1.49-3.45,1.76-5.44.27-1.98.4-3.93.4-5.84v-84.65h12.49v85.16c0,3.23-.31,6.37-.92,9.41-.61,3.04-1.83,5.78-3.64,8.23-1.81,2.45-4.51,4.4-8.08,5.84-3.58,1.44-8.35,2.17-14.33,2.17Zm21.02-128.74c-2.3,0-4.3-.65-5.99-1.95-1.69-1.3-2.54-3.07-2.54-5.33s.85-3.96,2.54-5.25c1.69-1.3,3.69-1.95,5.99-1.95s4.29.65,5.95,1.95c1.67,1.3,2.5,3.05,2.5,5.25s-.83,4.03-2.5,5.33c-1.67,1.3-3.65,1.95-5.95,1.95Z"/><path class="cls-3" d="m888.98,841.64v-11.17h60.33l-2.2,3.67v-1.62c0-4.51-.94-8.63-2.83-12.38-1.89-3.75-4.69-6.75-8.41-9-3.72-2.25-8.33-3.38-13.81-3.38s-10.41,1.18-14.62,3.53c-4.21,2.35-7.5,5.67-9.85,9.96-2.35,4.29-3.53,9.39-3.53,15.32s1.14,11.22,3.42,15.58c2.28,4.36,5.52,7.72,9.74,10.07,4.21,2.35,9.21,3.53,14.99,3.53,4.12,0,7.69-.43,10.73-1.29,3.04-.86,5.55-2.01,7.53-3.45,1.98-1.44,3.49-3.02,4.52-4.74,1.03-1.71,1.64-3.43,1.84-5.14h12.49c-.25,3.14-1.23,6.25-2.94,9.33-1.72,3.09-4.14,5.89-7.27,8.41-3.14,2.52-6.98,4.54-11.54,6.06-4.56,1.52-9.8,2.28-15.72,2.28-7.84,0-14.75-1.71-20.72-5.14-5.98-3.43-10.67-8.18-14.07-14.25-3.41-6.07-5.11-13.05-5.11-20.94s1.71-15,5.14-21.05c3.43-6.05,8.16-10.79,14.18-14.22,6.03-3.43,12.91-5.14,20.65-5.14s14.72,1.71,20.5,5.14c5.78,3.43,10.24,8.12,13.37,14.07,3.13,5.95,4.7,12.72,4.7,20.32,0,.78-.02,1.81-.07,3.09-.05,1.27-.12,2.13-.22,2.57h-71.2Z"/><path class="cls-3" d="m1014.93,877.06c-5.58,0-10.24-.97-13.96-2.9-3.72-1.93-6.68-4.45-8.85-7.53-2.18-3.09-3.72-6.43-4.63-10.03-.91-3.6-1.36-7.07-1.36-10.4v-48.57h12.56v45.56c0,3.97.55,7.64,1.65,11.02s3.02,6.11,5.77,8.19c2.74,2.08,6.51,3.12,11.32,3.12,4.51,0,8.45-1.36,11.83-4.08,3.38-2.72,6.03-6.12,7.94-10.21,1.91-4.09,2.87-8.17,2.87-12.23l7.27,3.01c0,4.31-.76,8.54-2.28,12.68-1.52,4.14-3.69,7.9-6.5,11.28-2.82,3.38-6.22,6.07-10.21,8.08-3.99,2.01-8.46,3.01-13.41,3.01Zm25.13-1.4v-78.04h12.49v78.04h-12.49Z"/><path class="cls-3" d="m1131.32,870.89c4.21.34,7.92,1.12,11.13,2.31,3.21,1.2,5.72,2.96,7.53,5.29,1.81,2.33,2.72,5.38,2.72,9.15,0,4.16-1.42,7.85-4.26,11.06-2.84,3.21-7.15,5.72-12.93,7.53-5.78,1.81-13.06,2.72-21.82,2.72-12.39,0-21.75-1.8-28.07-5.4s-9.48-8.51-9.48-14.73c0-1.96.23-3.69.7-5.18.46-1.5.99-2.71,1.58-3.64l11.9,1.76c-.39.54-.77,1.36-1.14,2.46-.37,1.1-.55,2.39-.55,3.86,0,3.92,2.23,6.67,6.69,8.27,4.46,1.59,10.78,2.39,18.96,2.39,6.12,0,11.14-.42,15.06-1.25,3.92-.83,6.83-2.03,8.74-3.6,1.91-1.57,2.87-3.41,2.87-5.51,0-3.18-1.34-5.16-4-5.92-2.67-.76-5.96-1.29-9.88-1.58l-29.69-2.2c-4.95-.39-8.98-1.92-12.09-4.59-3.11-2.67-4.67-5.92-4.67-9.74,0-2.35.58-4.58,1.73-6.69,1.15-2.11,2.5-3.88,4.04-5.33,1.54-1.44,2.93-2.31,4.15-2.61l9.85,4.48c-1.23.2-2.73,1.04-4.52,2.54-1.79,1.49-2.68,3.25-2.68,5.25,0,1.81.71,3.29,2.13,4.45,1.42,1.15,4.24,1.9,8.45,2.24l27.56,2.2Zm10.8-73.26h11.76l-4.85,30.71c-.88,5.73-2.72,10.91-5.51,15.54-2.79,4.63-6.6,8.3-11.43,11.02-4.83,2.72-10.79,4.08-17.89,4.08s-13.72-1.35-18.96-4.04c-5.24-2.69-9.26-6.38-12.05-11.06-2.79-4.68-4.19-9.96-4.19-15.83s1.46-11.35,4.37-16.13c2.91-4.78,6.97-8.55,12.16-11.32,5.19-2.77,11.14-4.15,17.86-4.15,6.03,0,11.29,1.04,15.8,3.12,4.51,2.08,8.07,4.69,10.69,7.83,2.62,3.14,4.08,6.3,4.37,9.48l-4.7.29,2.57-19.55Zm-28,50.19c4.75,0,8.83-.78,12.23-2.35,3.4-1.57,6.03-3.85,7.86-6.83,1.84-2.99,2.76-6.61,2.76-10.88s-.92-7.68-2.76-10.69-4.46-5.34-7.86-6.98c-3.41-1.64-7.46-2.46-12.16-2.46s-8.49.84-11.94,2.54-6.15,4.05-8.08,7.09c-1.94,3.04-2.9,6.61-2.9,10.73s.92,7.73,2.76,10.69,4.46,5.23,7.86,6.8c3.4,1.57,7.48,2.35,12.23,2.35Z"/><path class="cls-3" d="m1207.74,877.13c-6.42,0-12.3-1.55-17.64-4.67-5.34-3.11-9.6-7.69-12.79-13.74-3.18-6.05-4.78-13.43-4.78-22.15s1.62-15.85,4.85-21.82c3.23-5.98,7.52-10.52,12.86-13.63,5.34-3.11,11.17-4.67,17.49-4.67s11.67,1.43,16.94,4.3c5.27,2.87,9.52,6.85,12.75,11.94,3.23,5.1,4.85,11,4.85,17.71v.88l-8.96.37v-.96c0-4.26-1.11-8.11-3.34-11.54-2.23-3.43-5.16-6.16-8.78-8.19-3.63-2.03-7.52-3.05-11.68-3.05-6.96,0-12.71,2.34-17.27,7.02-4.56,4.68-6.83,11.89-6.83,21.64s2.29,16.91,6.87,21.64c4.58,4.73,10.32,7.09,17.23,7.09,4.36,0,8.34-1.05,11.94-3.16,3.6-2.11,6.48-4.93,8.63-8.49,2.15-3.55,3.23-7.53,3.23-11.94l8.96.22c0,6.66-1.54,12.65-4.63,17.97-3.09,5.32-7.24,9.52-12.46,12.6-5.22,3.09-11.03,4.63-17.45,4.63Zm25.57-1.47v-114.85h12.57v114.85h-12.57Z"/><path class="cls-3" d="m1275.19,875.66v-114.85h12.49v114.85h-12.49Zm55.92,0v-44.6c0-7.5-1.6-13.15-4.81-16.97-3.21-3.82-8.29-5.73-15.25-5.73-4.65,0-8.73.91-12.23,2.72-3.5,1.81-6.23,4.29-8.19,7.42-1.96,3.14-2.94,6.69-2.94,10.66l-7.94-2.43c0-5.58,1.46-10.67,4.37-15.25,2.91-4.58,6.91-8.23,11.98-10.95,5.07-2.72,10.81-4.08,17.23-4.08,9.36,0,16.74,2.82,22.15,8.45,5.41,5.63,8.12,13.42,8.12,23.37v47.39h-12.49Z"/><path class="cls-3" d="m1400.77,877.06c-5.58,0-10.24-.97-13.96-2.9-3.72-1.93-6.68-4.45-8.85-7.53-2.18-3.09-3.72-6.43-4.63-10.03-.91-3.6-1.36-7.07-1.36-10.4v-48.57h12.56v45.56c0,3.97.55,7.64,1.65,11.02s3.02,6.11,5.77,8.19c2.74,2.08,6.51,3.12,11.32,3.12,4.51,0,8.45-1.36,11.83-4.08,3.38-2.72,6.03-6.12,7.94-10.21,1.91-4.09,2.87-8.17,2.87-12.23l7.27,3.01c0,4.31-.76,8.54-2.28,12.68-1.52,4.14-3.69,7.9-6.5,11.28-2.82,3.38-6.22,6.07-10.21,8.08-3.99,2.01-8.46,3.01-13.41,3.01Zm25.13-1.4v-78.04h12.49v78.04h-12.49Z"/><path class="cls-3" d="m1480.5,760.81v114.85h-12.34v-114.85h12.34Z"/><path class="cls-3" d="m1510.25,907.77v-110.15h12.49v110.15h-12.49Zm38.14-30.64c-6.03,0-11.66-1.48-16.9-4.45-5.24-2.96-9.49-7.04-12.75-12.24-3.26-5.19-4.89-11.12-4.89-17.78v-.73l8.96-.22v.66c0,4.21,1.11,8.06,3.34,11.54,2.23,3.48,5.16,6.25,8.78,8.3,3.62,2.06,7.52,3.09,11.68,3.09,6.91,0,12.65-2.36,17.23-7.09,4.58-4.73,6.87-11.94,6.87-21.64s-2.28-16.96-6.83-21.64c-4.56-4.68-10.31-7.02-17.27-7.02-4.16,0-8.06,1.02-11.68,3.05-3.62,2.03-6.55,4.76-8.78,8.19-2.23,3.43-3.34,7.27-3.34,11.54l-8.96-.29c0-6.71,1.63-12.61,4.89-17.71,3.26-5.09,7.51-9.08,12.75-11.94,5.24-2.87,10.88-4.3,16.9-4.3s12.15,1.56,17.49,4.67c5.34,3.11,9.63,7.65,12.86,13.63s4.85,13.25,4.85,21.82-1.59,16.11-4.78,22.15c-3.18,6.05-7.45,10.63-12.79,13.74-5.34,3.11-11.22,4.67-17.64,4.67Z"/></svg>